<?xml version="1.0" encoding="utf-8"?>
<!-- Generator: Adobe Illustrator 15.1.0, SVG Export Plug-In . SVG Version: 6.00 Build 0)  -->
<!DOCTYPE svg PUBLIC "-//W3C//DTD SVG 1.0//EN" "http://www.w3.org/TR/2001/REC-SVG-20010904/DTD/svg10.dtd">
<svg version="1.0" id="Layer_1" xmlns="http://www.w3.org/2000/svg" xmlns:xlink="http://www.w3.org/1999/xlink" x="0px" y="0px"
	 width="332.108px" height="150px" viewBox="0 0 332.108 150" enable-background="new 0 0 332.108 150" xml:space="preserve">
<path fill="#B84B16" d="M136.95,76.768c-1.251-0.176-23.653,12.575-23.653,12.575s35.992,7.495,88.363,23.199
	c0,0,10.446-14.778,17.702-22.901C219.361,89.64,189.075,83.99,136.95,76.768"/>
<path fill="#005953" d="M95.449,75.26c17.711-3.052,36.109,0.5,36.109,0.5s-29.064,13.862-56.335,30.987
	c0,0-22.846-6.857-39.577-8.549C35.647,98.197,78.128,78.261,95.449,75.26"/>
<path fill="#B2BB1E" d="M158.06,105.197c0,0,16.947,4.555,40.364,12.448c0,0-14.855,21.965-20.17,32.355
	c0,0-14.86-8.594-42.917-20.934C135.337,129.066,141.311,122.711,158.06,105.197"/>
<path fill="#C5A901" d="M81.665,108.926c0,0,11.236-7.961,26.9-16.726c0,0,18.04,3.614,44.41,11.44l-23.583,22.763
	c0,0-13.841-5.795-25.545-10.031C92.142,112.143,81.665,108.926,81.665,108.926"/>
<path d="M82.169,74.177l-0.757,0.478L63.129,75.03l-0.48-0.581l3.343-17.039l2.187-11.613l4.759-23.131L56.368,56.94l-7.999,17.237
	l-0.761,0.478L32.56,74.939l-0.651-0.581L31.327,61.79l-1.81-39.124l-2.574,10.191L23.04,48.46l-6.188,25.717l-0.661,0.478
	c-7.146,0-9.147,0.096-15.718,0.375L0,74.449l5.805-20.951l6.578-24.266L17.898,8.1l0.565-0.577c11.911,0,14.673,0,26.099-0.289
	l0.572,0.568l0.48,15.059l0.38,6.953l0.945,18.548l11.998-25.696c1.526-3.151,6.193-13.238,6.857-14.567l0.666-0.577
	c11.145,0,13.899,0,25.902-0.289l0.466,0.568l-3.615,21.335l-4.187,25.696L82.169,74.177"/>
<path d="M137.119,64.181c-2.474,3.835-4.97,5.814-8.114,7.551l-0.572,0.229l-0.663,0.078c-7.792-1.151-11.278-1.167-14.816-1.233
	c-3.467-0.083-8.934-0.115-14.769,0.95l-0.56-0.057l-0.413-0.201c-4.911-3.482-7.513-8.782-7.513-16.743
	c0-7.633,2.754-16.842,7.902-23.044c6.749-7.903,15.709-9.046,21.987-9.046c6.477,0,11.337,1.519,13.526,2.751
	c9.415,4.961,9.415,15.81,9.415,18.091c0,3.432-0.279,6.764-1.039,9.992C140.436,57.699,138.731,61.689,137.119,64.181
	 M123.492,40.659c0-3.725-1.521-6.095-4.473-6.095c-3.711,0-5.617,3.987-6.087,4.848c-2.392,4.571-4.105,14.086-4.105,17.994
	c0,1.631,0,6.587,4.484,6.587c4.944,0,7.604-6.674,9.141-14.581C123.396,44.845,123.492,41.135,123.492,40.659z"/>
<path d="M140.624,70.178l3.441-12.002l0.847-0.288c1.531,1.718,5.521,6.39,13.048,6.39c2.954,0,6.665-0.966,6.665-3.919
	c0-2.558-2.281-3.702-5.9-5.525l-1.998-1.036c-4.379-2.387-9.515-5.25-9.515-13.138c0-4.29,1.704-8.385,4.651-11.618
	c3.433-3.711,9.337-6.376,18.375-6.376c7.725,0,11.82,1.706,16.961,3.889l0.476,0.87c-1.618,5.147-1.998,6.669-3.341,11.989
	l-0.947,0.192c-0.762-0.947-1.527-1.896-2.488-2.757c-2.182-1.81-5.703-3.048-8.737-3.048c-4.667,0-5.814,2.194-5.814,3.432
	c0,2.088,2.474,3.338,4.853,4.475l1.896,0.945c5.432,2.872,11.236,6.097,11.236,14.865c0,5.612-2.666,9.227-4.278,11.046
	c-6.376,7.126-15.901,7.328-19.997,7.328c-10.861,0-16.089-2.958-19.232-4.764L140.624,70.178"/>
<path d="M241.469,42.375c-1.622,6.663-3.239,13.428-4.48,20.077c-0.757,3.816-1.42,7.727-1.992,11.635l-0.582,0.569l-17.609,0.375
	l-0.474-0.581l0.757-4.372c-3.807,3.807-8.943,5.713-14.283,5.713c-4.464,0-7.417-1.704-8.944-2.853
	c-6.285-4.771-6.481-12.953-6.481-15.892c0-11.623,5.622-20.107,9.804-24.188c9.243-9.049,21.145-9.15,30.011-9.246h18.081
	l0.577,0.759L241.469,42.375 M224.326,36.081c-2.944-0.087-6.857-0.183-10.289,2.684c-2.656,2.274-6.463,8.088-6.463,16.553
	c0,4.869,2.189,7.715,6.001,7.715c2.089,0,3.514-0.954,4.946-2.002L224.326,36.081z"/>
<path d="M265.182,56.173c-2.007,9.337-2.3,11.331-3.34,18.004l-0.568,0.478l-20.285,0.375l-0.384-0.672
	c3.242-12.09,3.816-14.171,6.381-25.609l0.952-4.004c2.001-9.13,2.283-10.94,3.235-18.555l0.664-0.774
	c9.621-1.233,11.906-1.608,20.465-3.235l0.586,0.685l-6.573,27.803L265.182,56.173 M273.931,15.708l-0.755,0.677l-18.754,2.76
	l-0.675-0.682l3.24-15.233l0.764-0.661L276.877,0l0.581,0.666L273.931,15.708z"/>
<path d="M310.407,59.514c-1.906,6.85-2.089,8.09-3.336,13.616l-0.769,0.663c-3.509,1.146-6.85,2.098-11.709,2.098
	c-15.983,0-23.804-9.527-23.804-23.436c0-14.188,9.904-29.791,30.199-29.791c8.854,0,12.746,2.478,15.127,3.889l0.206,0.778
	l-3.725,12.844l-0.954,0.106c-2.281-2.849-4.855-4.485-8.47-4.485c-6.478,0-12.575,5.997-12.575,16.098
	c0,5.328,2.573,10.551,9.712,10.551c4.576,0,7.242-1.892,9.138-3.312L310.407,59.514"/>
<path d="M332.108,28.609c0,3.432-2.776,6.208-6.208,6.208c-3.432,0-6.212-2.776-6.212-6.208c0-3.432,2.78-6.212,6.212-6.212
	C329.333,22.397,332.108,25.177,332.108,28.609 M320.307,28.609c0,3.134,2.436,5.654,5.617,5.654c3.16,0,5.561-2.53,5.561-5.678
	c0-3.17-2.381-5.647-5.561-5.647C322.708,22.938,320.307,25.402,320.307,28.609z M323.639,24.936h2.766
	c1.658,0,2.382,0.692,2.382,2.028c0,1.195-0.852,1.77-1.878,1.943l2.175,3.371h-0.687l-2.213-3.385h-1.906v3.385h-0.64V24.936z
	 M324.278,28.339h1.549c1.121,0,2.34-0.11,2.34-1.392c0-1.133-0.99-1.468-1.869-1.468h-2.021V28.339z"/>
</svg>
